<mxfile host="app.diagrams.net" modified="2023-02-02T03:05:44.262Z" agent="5.0 (Windows NT 10.0; WOW64) AppleWebKit/537.36 (KHTML, like Gecko) Chrome/102.0.0.0 Safari/537.36" version="20.8.3" etag="dGYPHPjgNu3gAiDBW2fo" type="github">
  <diagram id="xv5Tho9vcZtsLMltUlNm" name="第 1 页">
    <mxGraphModel dx="1180" dy="720" grid="1" gridSize="10" guides="1" tooltips="1" connect="1" arrows="1" fold="1" page="1" pageScale="1" pageWidth="827" pageHeight="1169" math="0" shadow="0">
      <root>
        <mxCell id="0" />
        <mxCell id="1" parent="0" />
        <mxCell id="bZlDomiGvNA_Hqav9PgC-26" value="" style="swimlane;startSize=0;strokeWidth=2;" vertex="1" parent="1">
          <mxGeometry x="440" y="525" width="280" height="200" as="geometry">
            <mxRectangle x="120" y="280" width="50" height="40" as="alternateBounds" />
          </mxGeometry>
        </mxCell>
        <mxCell id="bZlDomiGvNA_Hqav9PgC-27" value="" style="group;rotation=40;" vertex="1" connectable="0" parent="bZlDomiGvNA_Hqav9PgC-26">
          <mxGeometry x="174" y="91" width="20" height="30" as="geometry" />
        </mxCell>
        <mxCell id="bZlDomiGvNA_Hqav9PgC-28" value="" style="ellipse;whiteSpace=wrap;html=1;aspect=fixed;fillColor=#FF66B3;rotation=40;" vertex="1" parent="bZlDomiGvNA_Hqav9PgC-27">
          <mxGeometry x="15" y="6" width="10" height="10" as="geometry" />
        </mxCell>
        <mxCell id="bZlDomiGvNA_Hqav9PgC-29" value="" style="ellipse;whiteSpace=wrap;html=1;aspect=fixed;fillColor=#FF66B3;rotation=40;" vertex="1" parent="bZlDomiGvNA_Hqav9PgC-27">
          <mxGeometry x="-10" y="13" width="10" height="10" as="geometry" />
        </mxCell>
        <mxCell id="bZlDomiGvNA_Hqav9PgC-30" value="" style="endArrow=none;html=1;rounded=0;startArrow=none;" edge="1" parent="bZlDomiGvNA_Hqav9PgC-27" source="bZlDomiGvNA_Hqav9PgC-29" target="bZlDomiGvNA_Hqav9PgC-28">
          <mxGeometry width="50" height="50" relative="1" as="geometry">
            <mxPoint x="-33" y="51" as="sourcePoint" />
            <mxPoint x="37" y="44" as="targetPoint" />
          </mxGeometry>
        </mxCell>
        <mxCell id="bZlDomiGvNA_Hqav9PgC-31" value="" style="group;rotation=40;" vertex="1" connectable="0" parent="bZlDomiGvNA_Hqav9PgC-27">
          <mxGeometry x="-10" y="-24" width="20" height="30" as="geometry" />
        </mxCell>
        <mxCell id="bZlDomiGvNA_Hqav9PgC-32" value="" style="ellipse;whiteSpace=wrap;html=1;aspect=fixed;fillColor=#FF66B3;rotation=40;" vertex="1" parent="bZlDomiGvNA_Hqav9PgC-31">
          <mxGeometry x="15" y="6" width="10" height="10" as="geometry" />
        </mxCell>
        <mxCell id="bZlDomiGvNA_Hqav9PgC-33" value="" style="ellipse;whiteSpace=wrap;html=1;aspect=fixed;fillColor=#FF66B3;rotation=40;" vertex="1" parent="bZlDomiGvNA_Hqav9PgC-31">
          <mxGeometry x="-5" y="14" width="10" height="10" as="geometry" />
        </mxCell>
        <mxCell id="bZlDomiGvNA_Hqav9PgC-34" value="" style="endArrow=none;html=1;rounded=0;startArrow=none;" edge="1" parent="bZlDomiGvNA_Hqav9PgC-31" source="bZlDomiGvNA_Hqav9PgC-33" target="bZlDomiGvNA_Hqav9PgC-32">
          <mxGeometry width="50" height="50" relative="1" as="geometry">
            <mxPoint x="-33" y="51" as="sourcePoint" />
            <mxPoint x="37" y="44" as="targetPoint" />
          </mxGeometry>
        </mxCell>
        <mxCell id="bZlDomiGvNA_Hqav9PgC-35" value="" style="group;rotation=20;" vertex="1" connectable="0" parent="bZlDomiGvNA_Hqav9PgC-26">
          <mxGeometry x="133" y="43" width="20" height="30" as="geometry" />
        </mxCell>
        <mxCell id="bZlDomiGvNA_Hqav9PgC-36" value="" style="ellipse;whiteSpace=wrap;html=1;aspect=fixed;fillColor=#FF66B3;rotation=20;" vertex="1" parent="bZlDomiGvNA_Hqav9PgC-35">
          <mxGeometry x="16" y="-4" width="10" height="10" as="geometry" />
        </mxCell>
        <mxCell id="bZlDomiGvNA_Hqav9PgC-37" value="" style="ellipse;whiteSpace=wrap;html=1;aspect=fixed;fillColor=#FF66B3;rotation=20;" vertex="1" parent="bZlDomiGvNA_Hqav9PgC-35">
          <mxGeometry x="4" y="13" width="10" height="10" as="geometry" />
        </mxCell>
        <mxCell id="bZlDomiGvNA_Hqav9PgC-38" value="" style="endArrow=none;html=1;rounded=0;startArrow=none;" edge="1" parent="bZlDomiGvNA_Hqav9PgC-35" source="bZlDomiGvNA_Hqav9PgC-37" target="bZlDomiGvNA_Hqav9PgC-36">
          <mxGeometry width="50" height="50" relative="1" as="geometry">
            <mxPoint x="-18" y="64" as="sourcePoint" />
            <mxPoint x="45" y="33" as="targetPoint" />
          </mxGeometry>
        </mxCell>
        <mxCell id="bZlDomiGvNA_Hqav9PgC-39" value="" style="group;rotation=15;" vertex="1" connectable="0" parent="bZlDomiGvNA_Hqav9PgC-35">
          <mxGeometry x="-5" y="-18" width="20" height="30" as="geometry" />
        </mxCell>
        <mxCell id="bZlDomiGvNA_Hqav9PgC-40" value="" style="ellipse;whiteSpace=wrap;html=1;aspect=fixed;fillColor=#FF66B3;rotation=15;" vertex="1" parent="bZlDomiGvNA_Hqav9PgC-39">
          <mxGeometry x="12" y="2" width="10" height="10" as="geometry" />
        </mxCell>
        <mxCell id="bZlDomiGvNA_Hqav9PgC-41" value="" style="ellipse;whiteSpace=wrap;html=1;aspect=fixed;fillColor=#FF66B3;rotation=15;" vertex="1" parent="bZlDomiGvNA_Hqav9PgC-39">
          <mxGeometry x="-2" y="18" width="10" height="10" as="geometry" />
        </mxCell>
        <mxCell id="bZlDomiGvNA_Hqav9PgC-42" value="" style="endArrow=none;html=1;rounded=0;startArrow=none;" edge="1" parent="bZlDomiGvNA_Hqav9PgC-39" source="bZlDomiGvNA_Hqav9PgC-41" target="bZlDomiGvNA_Hqav9PgC-40">
          <mxGeometry width="50" height="50" relative="1" as="geometry">
            <mxPoint x="-14" y="66" as="sourcePoint" />
            <mxPoint x="47" y="30" as="targetPoint" />
          </mxGeometry>
        </mxCell>
        <mxCell id="bZlDomiGvNA_Hqav9PgC-43" value="" style="group;rotation=90;" vertex="1" connectable="0" parent="bZlDomiGvNA_Hqav9PgC-26">
          <mxGeometry x="119" y="16" width="20" height="30" as="geometry" />
        </mxCell>
        <mxCell id="bZlDomiGvNA_Hqav9PgC-44" value="" style="ellipse;whiteSpace=wrap;html=1;aspect=fixed;fillColor=#FF66B3;rotation=0;" vertex="1" parent="bZlDomiGvNA_Hqav9PgC-43">
          <mxGeometry x="11" width="10" height="10" as="geometry" />
        </mxCell>
        <mxCell id="bZlDomiGvNA_Hqav9PgC-45" value="" style="ellipse;whiteSpace=wrap;html=1;aspect=fixed;fillColor=#FF66B3;rotation=0;" vertex="1" parent="bZlDomiGvNA_Hqav9PgC-43">
          <mxGeometry x="-1" y="20" width="10" height="10" as="geometry" />
        </mxCell>
        <mxCell id="bZlDomiGvNA_Hqav9PgC-46" value="" style="endArrow=none;html=1;rounded=0;startArrow=none;" edge="1" parent="bZlDomiGvNA_Hqav9PgC-43">
          <mxGeometry width="50" height="50" relative="1" as="geometry">
            <mxPoint x="6.572478777155993" y="19.71253537140683" as="sourcePoint" />
            <mxPoint x="13.427521222844007" y="8.287464628593625" as="targetPoint" />
          </mxGeometry>
        </mxCell>
        <mxCell id="bZlDomiGvNA_Hqav9PgC-47" value="" style="group;rotation=105;" vertex="1" connectable="0" parent="bZlDomiGvNA_Hqav9PgC-26">
          <mxGeometry x="50" y="-9" width="20" height="30" as="geometry" />
        </mxCell>
        <mxCell id="bZlDomiGvNA_Hqav9PgC-48" value="" style="ellipse;whiteSpace=wrap;html=1;aspect=fixed;fillColor=#FF66B3;rotation=15;" vertex="1" parent="bZlDomiGvNA_Hqav9PgC-47">
          <mxGeometry x="69" y="17" width="10" height="10" as="geometry" />
        </mxCell>
        <mxCell id="bZlDomiGvNA_Hqav9PgC-49" value="" style="ellipse;whiteSpace=wrap;html=1;aspect=fixed;fillColor=#FF66B3;rotation=15;" vertex="1" parent="bZlDomiGvNA_Hqav9PgC-47">
          <mxGeometry x="54" y="33" width="10" height="10" as="geometry" />
        </mxCell>
        <mxCell id="bZlDomiGvNA_Hqav9PgC-50" value="" style="endArrow=none;html=1;rounded=0;startArrow=none;" edge="1" parent="bZlDomiGvNA_Hqav9PgC-47" source="bZlDomiGvNA_Hqav9PgC-49">
          <mxGeometry width="50" height="50" relative="1" as="geometry">
            <mxPoint x="43" y="81" as="sourcePoint" />
            <mxPoint x="72" y="26" as="targetPoint" />
          </mxGeometry>
        </mxCell>
        <mxCell id="bZlDomiGvNA_Hqav9PgC-51" value="" style="group;rotation=15;" vertex="1" connectable="0" parent="1">
          <mxGeometry x="574" y="595" width="20" height="30" as="geometry" />
        </mxCell>
        <mxCell id="bZlDomiGvNA_Hqav9PgC-52" value="" style="ellipse;whiteSpace=wrap;html=1;aspect=fixed;fillColor=#FF66B3;rotation=15;" vertex="1" parent="bZlDomiGvNA_Hqav9PgC-51">
          <mxGeometry x="12" y="2" width="10" height="10" as="geometry" />
        </mxCell>
        <mxCell id="bZlDomiGvNA_Hqav9PgC-53" value="" style="ellipse;whiteSpace=wrap;html=1;aspect=fixed;fillColor=#FF66B3;rotation=15;" vertex="1" parent="bZlDomiGvNA_Hqav9PgC-51">
          <mxGeometry x="23" y="-18" width="10" height="10" as="geometry" />
        </mxCell>
        <mxCell id="bZlDomiGvNA_Hqav9PgC-54" value="" style="endArrow=none;html=1;rounded=0;startArrow=none;" edge="1" parent="bZlDomiGvNA_Hqav9PgC-51" source="bZlDomiGvNA_Hqav9PgC-53" target="bZlDomiGvNA_Hqav9PgC-52">
          <mxGeometry width="50" height="50" relative="1" as="geometry">
            <mxPoint x="-14" y="66" as="sourcePoint" />
            <mxPoint x="47" y="30" as="targetPoint" />
          </mxGeometry>
        </mxCell>
        <mxCell id="bZlDomiGvNA_Hqav9PgC-55" value="" style="group;rotation=30;" vertex="1" connectable="0" parent="1">
          <mxGeometry x="591" y="566" width="20" height="30" as="geometry" />
        </mxCell>
        <mxCell id="bZlDomiGvNA_Hqav9PgC-56" value="" style="ellipse;whiteSpace=wrap;html=1;aspect=fixed;fillColor=#FF66B3;rotation=30;" vertex="1" parent="bZlDomiGvNA_Hqav9PgC-55">
          <mxGeometry x="14" y="4" width="10" height="10" as="geometry" />
        </mxCell>
        <mxCell id="bZlDomiGvNA_Hqav9PgC-57" value="" style="ellipse;whiteSpace=wrap;html=1;aspect=fixed;fillColor=#FF66B3;rotation=30;" vertex="1" parent="bZlDomiGvNA_Hqav9PgC-55">
          <mxGeometry x="-4" y="16" width="10" height="10" as="geometry" />
        </mxCell>
        <mxCell id="bZlDomiGvNA_Hqav9PgC-58" value="" style="endArrow=none;html=1;rounded=0;startArrow=none;" edge="1" parent="bZlDomiGvNA_Hqav9PgC-55" source="bZlDomiGvNA_Hqav9PgC-57" target="bZlDomiGvNA_Hqav9PgC-56">
          <mxGeometry width="50" height="50" relative="1" as="geometry">
            <mxPoint x="-26" y="58" as="sourcePoint" />
            <mxPoint x="42" y="39" as="targetPoint" />
          </mxGeometry>
        </mxCell>
        <mxCell id="bZlDomiGvNA_Hqav9PgC-59" value="" style="group;rotation=45;" vertex="1" connectable="0" parent="1">
          <mxGeometry x="538" y="605" width="20" height="56" as="geometry" />
        </mxCell>
        <mxCell id="bZlDomiGvNA_Hqav9PgC-60" value="" style="ellipse;whiteSpace=wrap;html=1;aspect=fixed;fillColor=#FF66B3;rotation=45;" vertex="1" parent="bZlDomiGvNA_Hqav9PgC-59">
          <mxGeometry x="75" y="12" width="10" height="10" as="geometry" />
        </mxCell>
        <mxCell id="bZlDomiGvNA_Hqav9PgC-61" value="" style="ellipse;whiteSpace=wrap;html=1;aspect=fixed;fillColor=#FF66B3;rotation=45;" vertex="1" parent="bZlDomiGvNA_Hqav9PgC-59">
          <mxGeometry x="55" y="18" width="10" height="10" as="geometry" />
        </mxCell>
        <mxCell id="bZlDomiGvNA_Hqav9PgC-62" value="" style="endArrow=none;html=1;rounded=0;startArrow=none;" edge="1" parent="bZlDomiGvNA_Hqav9PgC-59" source="bZlDomiGvNA_Hqav9PgC-61" target="bZlDomiGvNA_Hqav9PgC-60">
          <mxGeometry width="50" height="50" relative="1" as="geometry">
            <mxPoint x="24" y="52" as="sourcePoint" />
            <mxPoint x="94" y="51" as="targetPoint" />
          </mxGeometry>
        </mxCell>
        <mxCell id="bZlDomiGvNA_Hqav9PgC-63" value="" style="group;rotation=65;" vertex="1" connectable="0" parent="bZlDomiGvNA_Hqav9PgC-59">
          <mxGeometry x="52" y="-16" width="20" height="40" as="geometry" />
        </mxCell>
        <mxCell id="bZlDomiGvNA_Hqav9PgC-64" value="" style="ellipse;whiteSpace=wrap;html=1;aspect=fixed;fillColor=#FF66B3;rotation=65;" vertex="1" parent="bZlDomiGvNA_Hqav9PgC-63">
          <mxGeometry x="43" y="13" width="10" height="10" as="geometry" />
        </mxCell>
        <mxCell id="bZlDomiGvNA_Hqav9PgC-65" value="" style="ellipse;whiteSpace=wrap;html=1;aspect=fixed;fillColor=#FF66B3;rotation=65;" vertex="1" parent="bZlDomiGvNA_Hqav9PgC-63">
          <mxGeometry x="21" y="12" width="10" height="10" as="geometry" />
        </mxCell>
        <mxCell id="bZlDomiGvNA_Hqav9PgC-66" value="" style="endArrow=none;html=1;rounded=0;startArrow=none;" edge="1" parent="bZlDomiGvNA_Hqav9PgC-63">
          <mxGeometry width="50" height="50" relative="1" as="geometry">
            <mxPoint x="31" y="17" as="sourcePoint" />
            <mxPoint x="43" y="18" as="targetPoint" />
          </mxGeometry>
        </mxCell>
        <mxCell id="bZlDomiGvNA_Hqav9PgC-67" value="" style="group;rotation=140;" vertex="1" connectable="0" parent="bZlDomiGvNA_Hqav9PgC-63">
          <mxGeometry x="-11" y="9" width="20" height="30" as="geometry" />
        </mxCell>
        <mxCell id="bZlDomiGvNA_Hqav9PgC-68" value="" style="ellipse;whiteSpace=wrap;html=1;aspect=fixed;fillColor=#FF66B3;rotation=50;" vertex="1" parent="bZlDomiGvNA_Hqav9PgC-67">
          <mxGeometry x="49" y="11" width="10" height="10" as="geometry" />
        </mxCell>
        <mxCell id="bZlDomiGvNA_Hqav9PgC-69" value="" style="ellipse;whiteSpace=wrap;html=1;aspect=fixed;fillColor=#FF66B3;rotation=50;" vertex="1" parent="bZlDomiGvNA_Hqav9PgC-67">
          <mxGeometry x="27" y="15" width="10" height="10" as="geometry" />
        </mxCell>
        <mxCell id="bZlDomiGvNA_Hqav9PgC-70" value="" style="endArrow=none;html=1;rounded=0;startArrow=none;" edge="1" parent="bZlDomiGvNA_Hqav9PgC-67" target="bZlDomiGvNA_Hqav9PgC-68">
          <mxGeometry width="50" height="50" relative="1" as="geometry">
            <mxPoint x="37" y="19" as="sourcePoint" />
            <mxPoint x="63" y="51" as="targetPoint" />
          </mxGeometry>
        </mxCell>
        <mxCell id="bZlDomiGvNA_Hqav9PgC-71" value="" style="group;rotation=105;" vertex="1" connectable="0" parent="bZlDomiGvNA_Hqav9PgC-59">
          <mxGeometry x="62" y="-31" width="20" height="30" as="geometry" />
        </mxCell>
        <mxCell id="bZlDomiGvNA_Hqav9PgC-72" value="" style="ellipse;whiteSpace=wrap;html=1;aspect=fixed;fillColor=#FF66B3;rotation=15;" vertex="1" parent="bZlDomiGvNA_Hqav9PgC-71">
          <mxGeometry x="13" y="2" width="10" height="10" as="geometry" />
        </mxCell>
        <mxCell id="bZlDomiGvNA_Hqav9PgC-73" value="" style="ellipse;whiteSpace=wrap;html=1;aspect=fixed;fillColor=#FF66B3;rotation=15;" vertex="1" parent="bZlDomiGvNA_Hqav9PgC-71">
          <mxGeometry x="-3" y="18" width="10" height="10" as="geometry" />
        </mxCell>
        <mxCell id="bZlDomiGvNA_Hqav9PgC-74" value="" style="endArrow=none;html=1;rounded=0;startArrow=none;" edge="1" parent="bZlDomiGvNA_Hqav9PgC-71" source="bZlDomiGvNA_Hqav9PgC-73" target="bZlDomiGvNA_Hqav9PgC-72">
          <mxGeometry width="50" height="50" relative="1" as="geometry">
            <mxPoint x="-14" y="66" as="sourcePoint" />
            <mxPoint x="46" y="30" as="targetPoint" />
          </mxGeometry>
        </mxCell>
        <mxCell id="bZlDomiGvNA_Hqav9PgC-75" value="" style="group;rotation=85;" vertex="1" connectable="0" parent="1">
          <mxGeometry x="533" y="525" width="20" height="30" as="geometry" />
        </mxCell>
        <mxCell id="bZlDomiGvNA_Hqav9PgC-76" value="" style="ellipse;whiteSpace=wrap;html=1;aspect=fixed;fillColor=#FF66B3;rotation=-5;" vertex="1" parent="bZlDomiGvNA_Hqav9PgC-75">
          <mxGeometry x="10" width="10" height="10" as="geometry" />
        </mxCell>
        <mxCell id="bZlDomiGvNA_Hqav9PgC-77" value="" style="ellipse;whiteSpace=wrap;html=1;aspect=fixed;fillColor=#FF66B3;rotation=-5;" vertex="1" parent="bZlDomiGvNA_Hqav9PgC-75">
          <mxGeometry y="20" width="10" height="10" as="geometry" />
        </mxCell>
        <mxCell id="bZlDomiGvNA_Hqav9PgC-78" value="" style="endArrow=none;html=1;rounded=0;startArrow=none;" edge="1" parent="bZlDomiGvNA_Hqav9PgC-75" source="bZlDomiGvNA_Hqav9PgC-77" target="bZlDomiGvNA_Hqav9PgC-76">
          <mxGeometry width="50" height="50" relative="1" as="geometry">
            <mxPoint x="5" y="71" as="sourcePoint" />
            <mxPoint x="49" y="17" as="targetPoint" />
          </mxGeometry>
        </mxCell>
        <mxCell id="bZlDomiGvNA_Hqav9PgC-80" value="y" style="text;html=1;align=center;verticalAlign=middle;resizable=0;points=[];autosize=1;strokeColor=none;fillColor=none;" vertex="1" parent="1">
          <mxGeometry x="410" y="605" width="30" height="30" as="geometry" />
        </mxCell>
        <mxCell id="bZlDomiGvNA_Hqav9PgC-81" value="x" style="text;html=1;align=center;verticalAlign=middle;resizable=0;points=[];autosize=1;strokeColor=none;fillColor=none;" vertex="1" parent="1">
          <mxGeometry x="564" y="725" width="30" height="30" as="geometry" />
        </mxCell>
        <mxCell id="bZlDomiGvNA_Hqav9PgC-82" value="0" style="text;html=1;align=center;verticalAlign=middle;resizable=0;points=[];autosize=1;strokeColor=none;fillColor=none;" vertex="1" parent="1">
          <mxGeometry x="420" y="715" width="30" height="30" as="geometry" />
        </mxCell>
      </root>
    </mxGraphModel>
  </diagram>
</mxfile>
